<svg width="136.97641601562498px" height="121.39999999999999px" xmlns="http://www.w3.org/2000/svg" viewBox="181.5117919921875 14.300000000000004 136.97641601562498 121.39999999999999" style="background: rgba(0, 0, 0, 0);" preserveAspectRatio="xMidYMid"><defs><linearGradient id="editing-shiny-gradient" x1="0.04322727117869957" x2="0.9567727288213004" y1="0.2966316784620999" y2="0.7033683215379001" gradientUnits="objectBoundingBox"><stop offset="0.0" stop-color="#ffb200"></stop><stop offset="0.5" stop-color="#e10057"></stop><stop offset="1.0" stop-color="#5A1A80"></stop></linearGradient><linearGradient id="editing-shiny-gradient2" x1="0" x2="0" y1="0" y2="1"><stop offset="0.2" stop-color="#fff" stop-opacity="0.8"></stop><stop offset="0.8" stop-color="#fff" stop-opacity="0"></stop></linearGradient><filter id="editing-shiny2" x="-100%" y="-100%" width="300%" height="300%"><feMorphology operator="erode" radius="2"></feMorphology></filter><filter id="editing-shiny" x="-100%" y="-100%" width="300%" height="300%"><feFlood flood-color="#fff" result="flood"></feFlood><feConvolveMatrix in="SourceGraphic" result="conv" order="8,8" divisor="1" kernelMatrix="0 0 0 0 0 0 0 0 0 0 0 1 1 0 0 0 0 0 0 1 1 0 0 0 0 0 1 0 0 1 0 0 0 0 1 0 0 1 0 0 0 1 0 0 0 0 1 0 0 1 1 0 0 1 1 0 0 0 0 1 1 0 0 0 "></feConvolveMatrix><feOffset dx="0" dy="4" in="conv" result="offset"></feOffset><feComposite operator="in" in="flood" in2="offset" result="comp"></feComposite><feGaussianBlur in="offset" stdDeviation="3" result="shadow"></feGaussianBlur><feColorMatrix in="shadow" type="matrix" values="0.7 0 0 0 0  0 0.7 0 0 0  0 0 0.7 0 0  0 0 0 0.3 0" result="dark-shadow"></feColorMatrix><feOffset dx="0" dy="4" in="dark-shadow" result="offset-shadow"></feOffset><feOffset dx="0" dy="2" in="conv" result="offset-2"></feOffset><feComposite operator="out" in="offset" in2="offset-2" result="edge-diff"></feComposite><feGaussianBlur in="edge-diff" stdDeviation="1" result="edge-blur"></feGaussianBlur><feColorMatrix in="edge-blur" result="edge-shadow" type="matrix" values="0 0 0 0 0  0 0 0 0 0  0 0 0 0 0  0 0 0 0.5 0"></feColorMatrix><feComposite operator="in" in="edge-shadow" in2="offset" result="edge-shadow-in"></feComposite><feOffset dx="0" dy="1" in="edge-shadow-in" result="edge-shadow-final"></feOffset><feMerge result="out"><feMergeNode in="offset-shadow"></feMergeNode><feMergeNode in="comp"></feMergeNode><feMergeNode in="edge-shadow-final"></feMergeNode><feMergeNode in="SourceGraphic"></feMergeNode></feMerge></filter></defs><g filter="url(#editing-shiny)"><g transform="translate(207.15026688575745, 97.37000274658203)"><path d="M42.62-26.56L42.62-26.56L42.62-26.56Q42.62 0.70 13.06 0.70L13.06 0.70L13.06 0.70Q8.32 0.70 0.51-0.45L0.51-0.45L7.68-38.27L7.68-38.27Q8.19-40.83 8.51-42.30L8.51-42.30L8.51-42.30Q18.24-43.01 22.56-43.01L22.56-43.01L22.56-43.01Q26.88-43.01 30.85-42.11L30.85-42.11L30.85-42.11Q34.82-41.22 37.44-39.23L37.44-39.23L37.44-39.23Q42.62-35.33 42.62-26.56ZM29.44-28.93L29.44-28.93L29.44-28.93Q29.44-38.46 22.59-38.46L22.59-38.46L21.95-38.46L21.95-38.46Q21.63-38.46 21.31-38.40L21.31-38.40L14.72-4.03L14.72-4.03Q14.98-3.90 15.23-3.90L15.23-3.90L15.74-3.90L15.74-3.90Q18.11-3.90 20.58-5.38L20.58-5.38L20.58-5.38Q23.04-6.85 24.96-9.86L24.96-9.86L24.96-9.86Q29.44-16.83 29.44-28.93ZM79.30-13.25L79.30-13.25L79.30-13.25Q80.96-12.03 80.96-9.44L80.96-9.44L80.96-9.44Q80.96-6.85 79.84-5.02L79.84-5.02L79.84-5.02Q78.72-3.20 76.54-1.79L76.54-1.79L76.54-1.79Q71.87 1.22 63.71 1.22L63.71 1.22L63.71 1.22Q55.55 1.22 51.10-3.04L51.10-3.04L51.10-3.04Q46.66-7.30 46.66-14.85L46.66-14.85L46.66-14.85Q46.66-25.54 52.22-33.66L52.22-33.66L52.22-33.66Q56.45-39.68 64-42.24L64-42.24L64-42.24Q67.90-43.52 71.74-43.52L71.74-43.52L71.74-43.52Q75.58-43.52 77.95-43.01L77.95-43.01L77.95-43.01Q80.32-42.50 82.11-41.47L82.11-41.47L82.11-41.47Q86.02-39.23 86.02-35.65L86.02-35.65L86.02-35.65Q86.02-32.38 82.94-29.95L82.94-29.95L82.94-29.95Q80.13-27.78 77.82-27.78L77.82-27.78L77.82-27.78Q75.52-27.78 74.56-28.10L74.56-28.10L74.56-28.10Q74.82-30.40 74.82-31.90L74.82-31.90L74.82-31.90Q74.82-33.41 74.75-34.50L74.75-34.50L74.75-34.50Q74.69-35.58 74.37-36.61L74.37-36.61L74.37-36.61Q73.73-38.98 71.78-38.98L71.78-38.98L71.78-38.98Q69.82-38.98 67.87-37.15L67.87-37.15L67.87-37.15Q65.92-35.33 64.26-32.26L64.26-32.26L64.26-32.26Q60.48-25.28 60.48-17.02L60.48-17.02L60.48-17.02Q60.48-13.06 62.72-10.78L62.72-10.78L62.72-10.78Q64.96-8.51 69.76-8.51L69.76-8.51L69.76-8.51Q73.34-8.51 76.74-10.88L76.74-10.88L76.74-10.88Q78.21-11.90 79.30-13.25Z" fill="url(#editing-shiny-gradient)"></path></g></g><g filter="url(#editing-shiny2)"><g transform="translate(207.14982056617737, 97.36999893188477)"><path d="M42.62-26.56L42.62-26.56L42.62-26.56Q42.62 0.70 13.06 0.70L13.06 0.70L13.06 0.70Q8.32 0.70 0.51-0.45L0.51-0.45L7.68-38.27L7.68-38.27Q8.19-40.83 8.51-42.30L8.51-42.30L8.51-42.30Q18.24-43.01 22.56-43.01L22.56-43.01L22.56-43.01Q26.88-43.01 30.85-42.11L30.85-42.11L30.85-42.11Q34.82-41.22 37.44-39.23L37.44-39.23L37.44-39.23Q42.62-35.33 42.62-26.56ZM29.44-28.93L29.44-28.93L29.44-28.93Q29.44-38.46 22.59-38.46L22.59-38.46L21.95-38.46L21.95-38.46Q21.63-38.46 21.31-38.40L21.31-38.40L14.72-4.03L14.72-4.03Q14.98-3.90 15.23-3.90L15.23-3.90L15.74-3.90L15.74-3.90Q18.11-3.90 20.58-5.38L20.58-5.38L20.58-5.38Q23.04-6.85 24.96-9.86L24.96-9.86L24.96-9.86Q29.44-16.83 29.44-28.93ZM79.30-13.25L79.30-13.25L79.30-13.25Q80.96-12.03 80.96-9.44L80.96-9.44L80.96-9.44Q80.96-6.85 79.84-5.02L79.84-5.02L79.84-5.02Q78.72-3.20 76.54-1.79L76.54-1.79L76.54-1.79Q71.87 1.22 63.71 1.22L63.71 1.22L63.71 1.22Q55.55 1.22 51.10-3.04L51.10-3.04L51.10-3.04Q46.66-7.30 46.66-14.85L46.66-14.85L46.66-14.85Q46.66-25.54 52.22-33.66L52.22-33.66L52.22-33.66Q56.45-39.68 64-42.24L64-42.24L64-42.24Q67.90-43.52 71.74-43.52L71.74-43.52L71.74-43.52Q75.58-43.52 77.95-43.01L77.95-43.01L77.95-43.01Q80.32-42.50 82.11-41.47L82.11-41.47L82.11-41.47Q86.02-39.23 86.02-35.65L86.02-35.65L86.02-35.65Q86.02-32.38 82.94-29.95L82.94-29.95L82.94-29.95Q80.13-27.78 77.82-27.78L77.82-27.78L77.82-27.78Q75.52-27.78 74.56-28.10L74.56-28.10L74.56-28.10Q74.82-30.40 74.82-31.90L74.82-31.90L74.82-31.90Q74.82-33.41 74.75-34.50L74.75-34.50L74.75-34.50Q74.69-35.58 74.37-36.61L74.37-36.61L74.37-36.61Q73.73-38.98 71.78-38.98L71.78-38.98L71.78-38.98Q69.82-38.98 67.87-37.15L67.87-37.15L67.87-37.15Q65.92-35.33 64.26-32.26L64.26-32.26L64.26-32.26Q60.48-25.28 60.48-17.02L60.48-17.02L60.48-17.02Q60.48-13.06 62.72-10.78L62.72-10.78L62.72-10.78Q64.96-8.51 69.76-8.51L69.76-8.51L69.76-8.51Q73.34-8.51 76.74-10.88L76.74-10.88L76.74-10.88Q78.21-11.90 79.30-13.25Z" fill="url(#editing-shiny-gradient2)"></path></g></g><style>text {
  font-size: 64px;
  font-family: Arial Black;
  dominant-baseline: central;
  text-anchor: middle;
}</style></svg>